<svg width="24" height="25" viewBox="0 0 24 25" fill="none" xmlns="http://www.w3.org/2000/svg">
<path d="M5.3191 21.6841L5.92492 21.3805L5.3191 21.6841ZM19.0102 21.6841L19.616 21.9877L19.0102 21.6841ZM2.95277 10.3024H21.3766V8.94711H2.95277V10.3024ZM20.974 9.89988V10.4949H22.3293V9.89988H20.974ZM18.7866 21.1447H5.54273V22.5H18.7866V21.1447ZM3.35529 10.4949V9.89988H2V10.4949H3.35529ZM5.92492 21.3805C4.23501 18.0006 3.35524 14.2737 3.35529 10.4949H2C2 14.4848 2.92837 18.4192 4.71329 21.9877L5.92492 21.3805ZM5.54273 21.1447C5.70536 21.1447 5.85309 21.2369 5.92492 21.3805L4.71329 21.9877C4.79045 22.1416 4.90888 22.271 5.05535 22.3615C5.20182 22.452 5.37057 22.4999 5.54273 22.5V21.1447ZM18.4044 21.3805C18.4399 21.3096 18.4945 21.25 18.562 21.2083C18.6295 21.1667 18.7073 21.1446 18.7866 21.1447V22.5C19.139 22.5 19.4588 22.3021 19.616 21.9877L18.4044 21.3805ZM20.974 10.4949C20.974 14.2734 20.0931 18.0004 18.4044 21.3805L19.616 21.9877C21.4004 18.4193 22.3294 14.4845 22.3293 10.4949H20.974ZM21.3766 10.3024C21.2698 10.3024 21.1674 10.26 21.0919 10.1845C21.0165 10.109 20.974 10.0066 20.974 9.89988H22.3293C22.3293 9.64719 22.229 9.40485 22.0503 9.22617C21.8716 9.04749 21.6293 8.94711 21.3766 8.94711V10.3024ZM2.95277 8.94711C2.70008 8.94711 2.45774 9.04749 2.27906 9.22617C2.10038 9.40485 2 9.64719 2 9.89988H3.35529C3.35529 10.0066 3.31288 10.109 3.23739 10.1845C3.16191 10.26 3.05952 10.3024 2.95277 10.3024V8.94711ZM7.32493 9.97306L11.3908 3.19662L10.2266 2.5L6.16074 9.27644L7.32358 9.97306H7.32493ZM12.9385 3.19662L17.0044 9.97306L18.1672 9.27644L14.1014 2.5L12.9385 3.19662Z" fill="#353535"/>
</svg>
