<svg width="16" height="16" viewBox="0 0 16 16" fill="none" xmlns="http://www.w3.org/2000/svg">
<path d="M8.00006 13.44C4.99206 13.44 2.56006 11.008 2.56006 8C2.56006 4.992 4.99206 2.56 8.00006 2.56C11.0081 2.56 13.4401 4.992 13.4401 8C13.4401 11.008 11.0081 13.44 8.00006 13.44ZM8.00006 3.2C5.34406 3.2 3.20006 5.344 3.20006 8C3.20006 10.656 5.34406 12.8 8.00006 12.8C10.6561 12.8 12.8001 10.656 12.8001 8C12.8001 5.344 10.6561 3.2 8.00006 3.2Z" fill="#80878E"/>
<path d="M6.33576 6.27227C6.43176 6.01627 6.52776 5.82427 6.71976 5.66427C6.87976 5.50427 7.07176 5.37627 7.32776 5.28027C7.58376 5.18427 7.83976 5.15227 8.12776 5.15227C8.35176 5.15227 8.57576 5.18427 8.76776 5.24827C8.95976 5.31227 9.15176 5.40827 9.31176 5.53627C9.47176 5.66427 9.59976 5.82427 9.66376 6.01627C9.75976 6.20827 9.79176 6.43227 9.79176 6.65627C9.79176 6.97627 9.72776 7.23227 9.59976 7.45627C9.47176 7.68027 9.27976 7.87227 9.08776 8.09627L8.67176 8.51227C8.57576 8.60827 8.47976 8.70427 8.44776 8.80027C8.38376 8.89627 8.35176 9.02427 8.35176 9.15227C8.31976 9.28027 8.31976 9.37627 8.31976 9.63227H7.80776C7.80776 9.37627 7.80776 9.28027 7.83976 9.08827C7.87176 8.92827 7.93576 8.76827 7.99976 8.60827C8.06376 8.48027 8.15976 8.35227 8.28776 8.22427C8.41576 8.09627 8.57576 7.96827 8.73576 7.77627C8.89576 7.61627 9.02376 7.45627 9.11976 7.29627C9.21576 7.13627 9.27976 6.91227 9.27976 6.72027C9.27976 6.56027 9.24776 6.40027 9.18376 6.27227C9.11976 6.14427 9.02376 6.01627 8.92776 5.92027C8.83176 5.82427 8.70376 5.76027 8.54376 5.69627C8.38376 5.63227 8.25576 5.60027 8.09576 5.60027C7.87176 5.60027 7.67976 5.63227 7.51976 5.72827C7.35976 5.79227 7.19976 5.92027 7.10376 6.04827C7.00776 6.17627 6.91176 6.33627 6.84776 6.52827C6.78376 6.72027 6.71976 6.81627 6.71976 7.04027H6.20776C6.20776 6.75227 6.23976 6.52827 6.33576 6.27227ZM8.31976 10.2403V10.8803H7.67976V10.2403H8.31976Z" fill="#80878E"/>
</svg>
